<svg width="42" height="33" viewBox="0 0 42 33" fill="none" xmlns="http://www.w3.org/2000/svg">
<circle cx="32.5" cy="9.5" r="9.5" fill="url(#paint0_linear_1129_1590)" fill-opacity="0.76"/>
<path d="M2.4 22.76V10.24H6.4V13.28H23V10.24H27V12.08H30.24V9.8H34.24V26.32H30.24V15.88H27V22.76H2.4ZM3.08 28.8C10.44 28.12 14.68 27.28 16.68 26.6V23.84H20.68V26.6C22.68 27.28 26.88 28.12 34.24 28.8L33.92 32.48C26.4 31.8 21.72 30.92 18.72 29.76C15.68 30.88 10.96 31.8 3.4 32.48L3.08 28.8ZM6.4 18.92H23V17.12H6.4V18.92Z" fill="black"/>
<defs>
<linearGradient id="paint0_linear_1129_1590" x1="26.5" y1="2.5" x2="40" y2="11.5" gradientUnits="userSpaceOnUse">
<stop stop-color="#9697FF"/>
<stop offset="1" stop-color="#FF883F"/>
</linearGradient>
</defs>
</svg>
